<svg xmlns="http://www.w3.org/2000/svg" xmlns:xlink="http://www.w3.org/1999/xlink" width="33" height="34" viewBox="0 0 33 34">
  <defs>
    <clipPath id="clip-path">
      <rect id="Rectángulo_87371" data-name="Rectángulo 87371" width="18.164" height="18.12" fill="#16163b"/>
    </clipPath>
  </defs>
  <g id="instagram" transform="translate(-974 -3136)">
    <ellipse id="Elipse_294" data-name="Elipse 294" cx="16.5" cy="17" rx="16.5" ry="17" transform="translate(974 3136)" fill="#f8f8f7"/>
    <g id="Grupo_31032" data-name="Grupo 31032" transform="translate(981.529 3144.117)">
      <g id="Grupo_31031" data-name="Grupo 31031" transform="translate(0)" clip-path="url(#clip-path)">
        <path id="Trazado_52666" data-name="Trazado 52666" d="M365.234,89.215h0a1.04,1.04,0,1,1,0,2.081,1.04,1.04,0,1,1,0-2.081" transform="translate(-351.276 -86.05)" fill="#16163b"/>
        <path id="Trazado_52667" data-name="Trazado 52667" d="M122.266,116.1h-.043a4.942,4.942,0,0,0,0,9.884h.043a4.942,4.942,0,0,0,0-9.884m0,8.236h-.043a3.273,3.273,0,0,1,0-6.546h.043a3.273,3.273,0,0,1,0,6.546" transform="translate(-113.162 -111.984)" fill="#16163b"/>
        <path id="Trazado_52668" data-name="Trazado 52668" d="M13.265,0H4.9A4.921,4.921,0,0,0,0,4.9v8.323a4.921,4.921,0,0,0,4.9,4.9h8.367a4.921,4.921,0,0,0,4.9-4.9V4.9a4.921,4.921,0,0,0-4.9-4.9M16.6,13.178a3.386,3.386,0,0,1-3.381,3.381H4.942a3.386,3.386,0,0,1-3.381-3.381V4.942A3.386,3.386,0,0,1,4.942,1.561h8.28A3.386,3.386,0,0,1,16.6,4.942Z" fill="#16163b"/>
      </g>
    </g>
  </g>
</svg>
