<svg id="logo" xmlns="http://www.w3.org/2000/svg" xmlns:xlink="http://www.w3.org/1999/xlink" width="206.589" height="62.18" viewBox="0 0 206.589 62.18">
  <defs>
    <clipPath id="clip-path">
      <rect id="Rectángulo_87358" data-name="Rectángulo 87358" width="206.589" height="62.18" fill="#fff"/>
    </clipPath>
  </defs>
  <g id="Grupo_30998" data-name="Grupo 30998" clip-path="url(#clip-path)">
    <path id="Trazado_52622" data-name="Trazado 52622" d="M71.514,23.91a.065.065,0,0,0-.08.036,10.881,10.881,0,0,1-.895,1.8,4.429,4.429,0,0,1-1.007,1.135,3.354,3.354,0,0,1-1.194.587,5.873,5.873,0,0,1-1.473.172A4.259,4.259,0,0,1,64.66,27.1a4.333,4.333,0,0,1-1.5-1.5,7.123,7.123,0,0,1-.85-2.26,14.062,14.062,0,0,1-.271-2.844,9.479,9.479,0,0,1,.248-2.158,5.929,5.929,0,0,1,.784-1.88,4.228,4.228,0,0,1,1.37-1.327,3.833,3.833,0,0,1,2.01-.5A4.282,4.282,0,0,1,69.3,15.664a5.7,5.7,0,0,1,1.718,3.106.062.062,0,0,0,.06.048h.739a.061.061,0,0,0,.044-.018.06.06,0,0,0,.017-.044c0-.638-.029-1.254-.086-1.831s-.128-1.1-.207-1.546a9.575,9.575,0,0,0-.251-1.105,1.434,1.434,0,0,0-.21-.514.063.063,0,0,0-.054-.017,2.891,2.891,0,0,0-1.563.894,5.6,5.6,0,0,0-3.142-.982,6.261,6.261,0,0,0-2.642.571,6.685,6.685,0,0,0-2.172,1.6,7.824,7.824,0,0,0-1.478,2.452,8.7,8.7,0,0,0-.546,3.129,8.559,8.559,0,0,0,.482,2.9,6.872,6.872,0,0,0,1.38,2.335,6.442,6.442,0,0,0,2.16,1.546,6.909,6.909,0,0,0,2.816.559,7.246,7.246,0,0,0,2.028-.285,5.781,5.781,0,0,0,1.756-.846,5.067,5.067,0,0,0,1.32-1.407,5.422,5.422,0,0,0,.737-1.989.064.064,0,0,0-.041-.069Z" transform="translate(1.276 0.293)" fill="#fff"/>
    <path id="Trazado_52623" data-name="Trazado 52623" d="M85.756,28.36l.586-4.3a.062.062,0,0,0-.044-.067l-.586-.174a.064.064,0,0,0-.077.039c-.214.6-.429,1.132-.638,1.58a2.981,2.981,0,0,1-2.153,1.736,9.527,9.527,0,0,1-2.189.2h-.673c-1.128,0-1.676-.385-1.676-1.176V22.052c0-.44.306-.655.938-.655h.26a7.62,7.62,0,0,1,1.163.076,1.7,1.7,0,0,1,.775.314,1.508,1.508,0,0,1,.479.689,5.4,5.4,0,0,1,.256,1.255.063.063,0,0,0,.062.055h.8a.061.061,0,0,0,.062-.061V18.1a.062.062,0,0,0-.062-.062h-.8a.063.063,0,0,0-.062.055,3.868,3.868,0,0,1-.308,1.25,1.611,1.611,0,0,1-.564.67,1.876,1.876,0,0,1-.8.273,8.691,8.691,0,0,1-1,.054h-.738c-.2,0-.46-.061-.46-.589V15.861c0-.615.52-.915,1.588-.915H80.5c.558,0,1.082.018,1.56.054a2.964,2.964,0,0,1,1.244.362,2.6,2.6,0,0,1,.922.945,5.267,5.267,0,0,1,.578,1.8.073.073,0,0,0,.069.051l.673-.086a.061.061,0,0,0,.054-.064l-.174-4.062a.062.062,0,0,0-.061-.06H73.943a.062.062,0,0,0-.062.062V14.6a.062.062,0,0,0,.062.062c1.4,0,2.089.577,2.089,1.765v9.857c0,.909-.634,1.351-1.937,1.351a.062.062,0,0,0-.062.062v.652a.061.061,0,0,0,.062.061h11.6a.062.062,0,0,0,.061-.053" transform="translate(1.584 0.298)" fill="#fff"/>
    <path id="Trazado_52624" data-name="Trazado 52624" d="M101.129,26.114c0,1.026-.6,1.524-1.849,1.524a.062.062,0,0,0-.062.062v.651a.062.062,0,0,0,.062.062H105.4a.062.062,0,0,0,.062-.062V27.7a.062.062,0,0,0-.062-.062c-1.288,0-1.914-.55-1.914-1.68l-.239-10.05a2.158,2.158,0,0,1,.053-.487.737.737,0,0,1,.242-.391,1.341,1.341,0,0,1,.591-.269,5.053,5.053,0,0,1,1.115-.1.061.061,0,0,0,.061-.062V13.95a.061.061,0,0,0-.061-.062h-4.411a.062.062,0,0,0-.058.04L96.65,24.791,92.321,13.927a.061.061,0,0,0-.057-.039H87.789a.062.062,0,0,0-.062.062V14.6a.062.062,0,0,0,.062.062,6.915,6.915,0,0,1,1.161.077,1.712,1.712,0,0,1,.639.219.577.577,0,0,1,.256.312,1.584,1.584,0,0,1,.053.42l-.174,9.918c-.073,1.366-.734,2.03-2.023,2.03a.062.062,0,0,0-.062.062v.651a.062.062,0,0,0,.062.062h5.235A.062.062,0,0,0,93,28.351V27.7a.062.062,0,0,0-.062-.062,2.277,2.277,0,0,1-1.668-.528,1.782,1.782,0,0,1-.442-1.321l.085-9.269,4.834,11.855a.064.064,0,0,0,.058.038h.608a.061.061,0,0,0,.058-.04l4.512-12.028Z" transform="translate(1.879 0.298)" fill="#fff"/>
    <path id="Trazado_52625" data-name="Trazado 52625" d="M107.521,14.663c1.406,0,2.088.577,2.088,1.766v9.856c0,.909-.633,1.352-1.936,1.352a.061.061,0,0,0-.062.061v.652a.062.062,0,0,0,.062.062h11.6a.061.061,0,0,0,.061-.054l.586-4.3a.062.062,0,0,0-.044-.068l-.586-.174a.064.064,0,0,0-.076.039c-.216.6-.43,1.132-.639,1.58a2.976,2.976,0,0,1-2.152,1.736,9.479,9.479,0,0,1-2.19.2h-.673c-1.128,0-1.676-.385-1.676-1.176V22.052c0-.441.306-.656.938-.656h.26a7.619,7.619,0,0,1,1.163.076,1.7,1.7,0,0,1,.775.314,1.514,1.514,0,0,1,.479.689,5.524,5.524,0,0,1,.257,1.255.062.062,0,0,0,.062.056h.8a.062.062,0,0,0,.062-.062V18.1a.062.062,0,0,0-.062-.062h-.8a.061.061,0,0,0-.062.055,3.865,3.865,0,0,1-.309,1.25,1.6,1.6,0,0,1-.563.67,1.9,1.9,0,0,1-.8.273,8.678,8.678,0,0,1-1,.054h-.738c-.2,0-.46-.061-.46-.589V15.861c0-.616.52-.915,1.588-.915h.609c.558,0,1.083.018,1.56.054a2.934,2.934,0,0,1,1.244.362,2.579,2.579,0,0,1,.922.945,5.259,5.259,0,0,1,.579,1.8c0,.033.035.048.068.052l.674-.087a.062.062,0,0,0,.054-.064l-.174-4.062a.061.061,0,0,0-.062-.059H107.521a.062.062,0,0,0-.062.062V14.6a.062.062,0,0,0,.062.062" transform="translate(2.304 0.298)" fill="#fff"/>
    <path id="Trazado_52626" data-name="Trazado 52626" d="M121.088,14.663c1.385,0,2.088.287,2.088.852V25.11c0,1.7-.577,2.528-1.762,2.528a.061.061,0,0,0-.062.061v.652a.062.062,0,0,0,.062.062h5.212a.062.062,0,0,0,.062-.062V27.7a.061.061,0,0,0-.062-.061c-1.463,0-2.175-.825-2.175-2.523V16.541l9.489,12.088a.063.063,0,0,0,.049.023.042.042,0,0,0,.016,0l.565-.152a.062.062,0,0,0,.046-.06V16.994c0-1.568.633-2.331,1.937-2.331a.061.061,0,0,0,.061-.062V13.95a.061.061,0,0,0-.061-.062H131.34a.062.062,0,0,0-.062.062V14.6a.062.062,0,0,0,.062.062c1.448,0,2.154.763,2.154,2.332v7.613l-8.386-10.7a.063.063,0,0,0-.049-.023h-3.971a.062.062,0,0,0-.062.062V14.6a.062.062,0,0,0,.062.062" transform="translate(2.595 0.298)" fill="#fff"/>
    <path id="Trazado_52627" data-name="Trazado 52627" d="M149.395,13.739c-.326.043-.655.08-.975.108s-.627.044-.928.044h-8.364c-.271,0-.559-.014-.852-.044s-.618-.065-.942-.108a.062.062,0,0,0-.047.013.064.064,0,0,0-.023.041l-.586,4.627a.063.063,0,0,0,.046.068l.674.174a.063.063,0,0,0,.047-.007.067.067,0,0,0,.029-.04,5.842,5.842,0,0,1,1.31-2.762,3.036,3.036,0,0,1,2.279-.9c.675,0,1,.243,1,.742V25.7c0,1.3-.74,1.937-2.262,1.937a.062.062,0,0,0-.062.062v.651a.062.062,0,0,0,.062.062h6.82a.062.062,0,0,0,.062-.062V27.7a.062.062,0,0,0-.062-.062c-1.535,0-2.284-.633-2.284-1.937V15.691c0-.455.335-.676,1.019-.676,2.112,0,3.224,1.118,3.4,3.418a.061.061,0,0,0,.023.044.056.056,0,0,0,.048.013l.587-.088a.061.061,0,0,0,.052-.061V13.8a.063.063,0,0,0-.021-.047.086.086,0,0,0-.048-.015" transform="translate(2.93 0.295)" fill="#fff"/>
    <path id="Trazado_52628" data-name="Trazado 52628" d="M162.564,23.816a.066.066,0,0,0-.077.039c-.214.6-.429,1.132-.638,1.58a2.981,2.981,0,0,1-2.152,1.736,9.48,9.48,0,0,1-2.19.2h-.673c-1.128,0-1.676-.385-1.676-1.176V22.052c0-.441.307-.656.938-.656h.26a7.619,7.619,0,0,1,1.163.076,1.689,1.689,0,0,1,.775.315,1.505,1.505,0,0,1,.479.688,5.421,5.421,0,0,1,.256,1.255.063.063,0,0,0,.062.056h.8a.061.061,0,0,0,.061-.062V18.1a.061.061,0,0,0-.061-.062h-.8a.063.063,0,0,0-.062.055,3.85,3.85,0,0,1-.307,1.25,1.614,1.614,0,0,1-.565.67,1.876,1.876,0,0,1-.8.273,8.666,8.666,0,0,1-1,.054h-.738c-.2,0-.46-.061-.46-.589V15.861c0-.616.52-.915,1.589-.915h.608c.558,0,1.083.018,1.56.054a2.935,2.935,0,0,1,1.244.362,2.586,2.586,0,0,1,.922.945,5.216,5.216,0,0,1,.578,1.8.076.076,0,0,0,.069.052l.673-.087a.061.061,0,0,0,.054-.064l-.174-4.062a.061.061,0,0,0-.061-.059H150.8a.062.062,0,0,0-.062.062V14.6a.062.062,0,0,0,.062.062c1.4,0,2.088.577,2.088,1.766v9.856c0,.91-.633,1.352-1.936,1.352a.061.061,0,0,0-.062.061v.652a.062.062,0,0,0,.062.062h11.6a.062.062,0,0,0,.061-.054l.586-4.3a.062.062,0,0,0-.044-.068Z" transform="translate(3.231 0.298)" fill="#fff"/>
    <path id="Trazado_52629" data-name="Trazado 52629" d="M178.206,26.231a.061.061,0,0,0-.05,0,.06.06,0,0,0-.031.04c-.152.617-.387.931-.7.931a.853.853,0,0,1-.69-.358,3.76,3.76,0,0,1-.523-.908,9.992,9.992,0,0,1-.4-1.144c-.116-.407-.218-.754-.305-1.046a4.356,4.356,0,0,0-.936-1.467,5.619,5.619,0,0,0-1.676-1.229,7.689,7.689,0,0,0,1.471-.464,4.923,4.923,0,0,0,1.22-.748,3.027,3.027,0,0,0,1.1-2.416,3.019,3.019,0,0,0-.354-1.44,3.69,3.69,0,0,0-.96-1.149,4.6,4.6,0,0,0-1.442-.76,5.678,5.678,0,0,0-1.779-.275c-.506,0-.941,0-1.293.011s-.683.017-1,.032-.634.026-.964.033-.741.011-1.216.011h-2.715a.062.062,0,0,0-.062.062v.673a.062.062,0,0,0,.062.062c1.346,0,2,.434,2,1.328V26.29c0,.908-.606,1.349-1.85,1.349a.062.062,0,0,0-.062.062v.651a.062.062,0,0,0,.062.062h6.126a.062.062,0,0,0,.062-.062V27.7a.062.062,0,0,0-.062-.062c-1.3,0-1.936-.441-1.936-1.349v-4.7c.053-.123.265-.188.611-.188h.652a1.7,1.7,0,0,1,1.258.514,4.515,4.515,0,0,1,.867,1.306,11.908,11.908,0,0,1,.616,1.728c.176.635.351,1.232.522,1.773a2.7,2.7,0,0,0,.958,1.477,3.494,3.494,0,0,0,1.991.457,1.5,1.5,0,0,0,.849-.25,2.574,2.574,0,0,0,.623-.578,2.388,2.388,0,0,0,.379-.714,2.171,2.171,0,0,0,.123-.649.063.063,0,0,0-.042-.059Zm-4.257-7.116a2.151,2.151,0,0,1-.75.846,2.661,2.661,0,0,1-1.06.381,8.935,8.935,0,0,1-1.251.087h-1.13c-.256,0-.408-.089-.459-.273v-4.14c0-.776.249-1.154.762-1.154H171.1a4.935,4.935,0,0,1,1.094.129,3.051,3.051,0,0,1,1.011.436,2.333,2.333,0,0,1,.741.837,2.813,2.813,0,0,1,.285,1.338,3.33,3.33,0,0,1-.286,1.514" transform="translate(3.535 0.296)" fill="#fff"/>
    <path id="Trazado_52630" data-name="Trazado 52630" d="M185.952,27.638c-1.362,0-2.022-.471-2.022-1.439V16.516c0-1.246.633-1.853,1.936-1.853a.061.061,0,0,0,.062-.061V13.95a.062.062,0,0,0-.062-.062h-6.3a.062.062,0,0,0-.062.062V14.6a.061.061,0,0,0,.062.061c1.406,0,2.088.607,2.088,1.853V26.2c0,.968-.654,1.439-2,1.439a.062.062,0,0,0-.062.062v.651a.062.062,0,0,0,.062.062h6.3a.062.062,0,0,0,.062-.062V27.7a.062.062,0,0,0-.062-.062" transform="translate(3.848 0.298)" fill="#fff"/>
    <path id="Trazado_52631" data-name="Trazado 52631" d="M202.01,18.124a7.211,7.211,0,0,0-1.523-2.355,6.944,6.944,0,0,0-2.323-1.557,7.669,7.669,0,0,0-2.946-.558,6.678,6.678,0,0,0-2.949.647A7.267,7.267,0,0,0,190,16.009a7.581,7.581,0,0,0-1.445,2.431,8.1,8.1,0,0,0-.5,2.813,7.97,7.97,0,0,0,.536,2.921,7.438,7.438,0,0,0,1.489,2.388,6.9,6.9,0,0,0,2.27,1.6,7.042,7.042,0,0,0,2.87.581,6.791,6.791,0,0,0,3.025-.668,7.416,7.416,0,0,0,2.311-1.753,8.1,8.1,0,0,0,1.478-2.463,7.936,7.936,0,0,0-.022-5.736m-2.053,3.118a11.723,11.723,0,0,1-.271,2.577,6.532,6.532,0,0,1-.827,2.072,4.191,4.191,0,0,1-1.413,1.38,4.019,4.019,0,0,1-2.054.5,4.07,4.07,0,0,1-3.6-1.922,6.656,6.656,0,0,1-.86-2.128,11.9,11.9,0,0,1-.282-2.654,13.226,13.226,0,0,1,.228-2.482,6.557,6.557,0,0,1,.752-2.084A4.139,4.139,0,0,1,193,15.072a3.791,3.791,0,0,1,2.062-.534,4.3,4.3,0,0,1,2.259.566,4.566,4.566,0,0,1,1.511,1.5,6.873,6.873,0,0,1,.85,2.138,11.472,11.472,0,0,1,.271,2.5" transform="translate(4.031 0.293)" fill="#fff"/>
    <path id="Trazado_52632" data-name="Trazado 52632" d="M68.319,43.027a11.34,11.34,0,0,0,1.148-.458,3.729,3.729,0,0,0,.971-.653A2.7,2.7,0,0,0,71.072,41a3.206,3.206,0,0,0,.222-1.251,2.926,2.926,0,0,0-.422-1.608,3.223,3.223,0,0,0-1.148-1.064A5.65,5.65,0,0,0,68,36.488a11.837,11.837,0,0,0-2.146-.185H59.589a.062.062,0,0,0-.062.062v.673a.062.062,0,0,0,.062.062c1.4,0,2.088.477,2.088,1.459V48.9c0,.776-.655,1.154-2,1.154a.061.061,0,0,0-.062.061v.653a.062.062,0,0,0,.062.062c1.4,0,2.679.014,3.807.043,1.152.03,2.338.043,3.524.043a9.148,9.148,0,0,0,2.041-.218A4.465,4.465,0,0,0,70.7,49.97a3.517,3.517,0,0,0,1.093-1.338,4.665,4.665,0,0,0,.4-2.014A3.029,3.029,0,0,0,71.1,44.18a5.619,5.619,0,0,0-2.779-1.153M63.952,49.18V44.489c0-.514.185-.763.564-.763h.776a13.439,13.439,0,0,1,1.867.118,3.889,3.889,0,0,1,1.411.459,2.22,2.22,0,0,1,.88.953,4.326,4.326,0,0,1,.053,3.063,2.5,2.5,0,0,1-.7.954,2.782,2.782,0,0,1-1.065.531,5.337,5.337,0,0,1-1.342.16h-.95c-1,0-1.49-.256-1.49-.784M68.87,41.29a1.5,1.5,0,0,1-.614.835A3.4,3.4,0,0,1,66.9,42.6a14.835,14.835,0,0,1-2.381.152c-.385,0-.565-.174-.565-.546V38.016c0-.492.489-.742,1.452-.742h.844c1.865,0,2.771.9,2.771,2.739a4.734,4.734,0,0,1-.149,1.276" transform="translate(1.276 0.779)" fill="#fff"/>
    <path id="Trazado_52633" data-name="Trazado 52633" d="M87.617,48.645a.062.062,0,0,0-.05.005.058.058,0,0,0-.031.04c-.151.617-.387.93-.7.93a.847.847,0,0,1-.689-.356,3.784,3.784,0,0,1-.524-.909,10.279,10.279,0,0,1-.4-1.143c-.116-.407-.218-.754-.305-1.046a4.346,4.346,0,0,0-.936-1.467,5.648,5.648,0,0,0-1.675-1.229,7.819,7.819,0,0,0,1.47-.464A4.9,4.9,0,0,0,85,42.257a3.028,3.028,0,0,0,1.1-2.415A3.029,3.029,0,0,0,85.74,38.4a3.68,3.68,0,0,0-.96-1.148,4.6,4.6,0,0,0-1.442-.761,5.692,5.692,0,0,0-1.779-.275c-.5,0-.94,0-1.293.011-.383.008-.711.018-1,.033s-.613.025-.965.033c-.314.007-.7.011-1.214.011H74.368a.061.061,0,0,0-.062.061v.674a.061.061,0,0,0,.062.061c1.346,0,2,.435,2,1.329V48.7c0,.908-.606,1.349-1.85,1.349a.062.062,0,0,0-.062.062v.652a.062.062,0,0,0,.062.062h6.126a.062.062,0,0,0,.062-.062v-.652a.062.062,0,0,0-.062-.062c-1.3,0-1.936-.441-1.936-1.349V44c.053-.123.265-.189.611-.189h.652a1.7,1.7,0,0,1,1.258.515,4.512,4.512,0,0,1,.868,1.306,11.916,11.916,0,0,1,.615,1.728c.176.636.351,1.232.522,1.772a2.687,2.687,0,0,0,.958,1.477,3.491,3.491,0,0,0,1.991.457,1.505,1.505,0,0,0,.849-.249,2.571,2.571,0,0,0,.623-.578,2.385,2.385,0,0,0,.379-.714,2.16,2.16,0,0,0,.123-.65.063.063,0,0,0-.042-.059ZM83.36,41.529a2.139,2.139,0,0,1-.749.845,2.652,2.652,0,0,1-1.061.382,8.871,8.871,0,0,1-1.251.086h-1.13c-.257,0-.408-.089-.459-.272V38.43c0-.777.249-1.155.763-1.155h1.042a4.878,4.878,0,0,1,1.094.13,3.012,3.012,0,0,1,1.011.436,2.314,2.314,0,0,1,.741.837,2.8,2.8,0,0,1,.286,1.338,3.335,3.335,0,0,1-.287,1.514" transform="translate(1.593 0.777)" fill="#fff"/>
    <path id="Trazado_52634" data-name="Trazado 52634" d="M95.364,50.052c-1.362,0-2.023-.471-2.023-1.438V38.93c0-1.245.633-1.852,1.937-1.852a.062.062,0,0,0,.062-.062v-.652a.062.062,0,0,0-.062-.062h-6.3a.062.062,0,0,0-.062.062v.652a.062.062,0,0,0,.062.062c1.4,0,2.088.607,2.088,1.852v9.683c0,.967-.655,1.438-2,1.438a.062.062,0,0,0-.062.062v.652a.062.062,0,0,0,.062.062h6.3a.062.062,0,0,0,.062-.062v-.652a.062.062,0,0,0-.062-.062" transform="translate(1.906 0.779)" fill="#fff"/>
    <path id="Trazado_52635" data-name="Trazado 52635" d="M109.14,36.153c-.337.045-.665.081-.974.109s-.624.043-.928.043H98.873c-.277,0-.563-.014-.852-.043s-.6-.063-.943-.109a.075.075,0,0,0-.046.013.066.066,0,0,0-.025.041l-.586,4.627a.064.064,0,0,0,.046.068l.673.174a.067.067,0,0,0,.049-.007.071.071,0,0,0,.029-.04,5.838,5.838,0,0,1,1.308-2.761,3.036,3.036,0,0,1,2.279-.9c.675,0,1,.242,1,.741V48.118c0,1.3-.741,1.937-2.262,1.937a.061.061,0,0,0-.061.062v.652a.061.061,0,0,0,.061.062h6.82a.062.062,0,0,0,.062-.062v-.652a.062.062,0,0,0-.062-.062c-1.536,0-2.283-.633-2.283-1.937V38.1c0-.455.333-.676,1.018-.676,2.113,0,3.225,1.118,3.4,3.418a.065.065,0,0,0,.023.044.067.067,0,0,0,.048.013l.587-.087a.062.062,0,0,0,.053-.061v-4.54a.064.064,0,0,0-.021-.047.087.087,0,0,0-.049-.015" transform="translate(2.067 0.775)" fill="#fff"/>
    <path id="Trazado_52636" data-name="Trazado 52636" d="M118.7,31.411a2.015,2.015,0,0,0-.964.268,8.191,8.191,0,0,0-.974.635c-.325.245-.658.509-.99.783a6.953,6.953,0,0,1-1.034.711.063.063,0,0,0-.031.04.068.068,0,0,0,.009.049l.391.587a.062.062,0,0,0,.083.019,5.014,5.014,0,0,1,1.147-.44c.5-.138,1-.287,1.48-.446a7.811,7.811,0,0,0,1.282-.536.9.9,0,0,0,.575-.761,1.129,1.129,0,0,0-.184-.6.864.864,0,0,0-.791-.312" transform="translate(2.459 0.674)" fill="#fff"/>
    <path id="Trazado_52637" data-name="Trazado 52637" d="M123.124,49.832a.949.949,0,0,1-.34-.111,2.033,2.033,0,0,1-.454-.535l-5.148-12.9a.061.061,0,0,0-.035-.035l-.651-.259a.063.063,0,0,0-.081.034L111.2,48.427a2.93,2.93,0,0,1-.732,1.1,1.716,1.716,0,0,1-1.038.419.062.062,0,0,0-.058.062v.76a.062.062,0,0,0,.062.062h4.888a.061.061,0,0,0,.061-.062v-.76a.061.061,0,0,0-.061-.062c-1.228,0-1.85-.314-1.85-.933a1.379,1.379,0,0,1,.084-.542l.74-2.249c.107-.348.415-.518.939-.518h3.237c.693,0,1.119.178,1.267.524l.979,2.676a1.156,1.156,0,0,1,.114.381,1.2,1.2,0,0,0,.033.244c0,.062-.051.121-.151.174a1.882,1.882,0,0,1-.441.157,5.922,5.922,0,0,1-.6.107c-.225.03-.439.058-.641.088a.061.061,0,0,0-.053.061v.652a.062.062,0,0,0,.062.062h5.951a.062.062,0,0,0,.062-.062v-.652a.061.061,0,0,0-.046-.06c-.377-.1-.67-.177-.88-.229m-5-5.358c0,.163-.321.2-.589.2H114.8c-.338,0-.742-.045-.742-.264a2.008,2.008,0,0,1,.234-.714l1.853-4.419,1.747,4.5a3.436,3.436,0,0,1,.235.695" transform="translate(2.345 0.772)" fill="#fff"/>
    <path id="Trazado_52638" data-name="Trazado 52638" d="M139.807,36.3h-5.213a.061.061,0,0,0-.061.062v.652a.061.061,0,0,0,.061.062c1.449,0,2.154.763,2.154,2.332v7.612l-8.385-10.7a.063.063,0,0,0-.05-.023h-3.971a.061.061,0,0,0-.061.062v.652a.061.061,0,0,0,.061.062c1.386,0,2.089.286,2.089.851v9.6c0,1.7-.577,2.527-1.762,2.527a.062.062,0,0,0-.062.062v.652a.062.062,0,0,0,.062.062h5.212a.062.062,0,0,0,.062-.062v-.652a.062.062,0,0,0-.062-.062c-1.464,0-2.175-.825-2.175-2.523V38.956l9.488,12.087a.064.064,0,0,0,.05.025l.016,0,.565-.152a.063.063,0,0,0,.045-.06V39.409c0-1.568.634-2.331,1.937-2.331a.062.062,0,0,0,.062-.062v-.652a.062.062,0,0,0-.062-.062" transform="translate(2.664 0.779)" fill="#fff"/>
    <path id="Trazado_52639" data-name="Trazado 52639" d="M147.569,50.052c-1.362,0-2.023-.471-2.023-1.438V38.93c0-1.245.633-1.852,1.937-1.852a.062.062,0,0,0,.062-.062v-.652a.062.062,0,0,0-.062-.062h-6.3a.062.062,0,0,0-.062.062v.652a.062.062,0,0,0,.062.062c1.4,0,2.088.607,2.088,1.852v9.683c0,.967-.655,1.438-2,1.438a.062.062,0,0,0-.062.062v.652a.062.062,0,0,0,.062.062h6.3a.062.062,0,0,0,.062-.062v-.652a.062.062,0,0,0-.062-.062" transform="translate(3.025 0.779)" fill="#fff"/>
    <path id="Trazado_52640" data-name="Trazado 52640" d="M161.8,46.324a.065.065,0,0,0-.08.036,10.882,10.882,0,0,1-.895,1.8,4.435,4.435,0,0,1-1.007,1.136,3.343,3.343,0,0,1-1.194.586,5.858,5.858,0,0,1-1.472.172,4.254,4.254,0,0,1-2.205-.545,4.326,4.326,0,0,1-1.5-1.5,7.1,7.1,0,0,1-.85-2.26,14.1,14.1,0,0,1-.271-2.844,9.416,9.416,0,0,1,.249-2.158,5.9,5.9,0,0,1,.784-1.88,4.188,4.188,0,0,1,1.37-1.327,3.829,3.829,0,0,1,2.009-.5,4.287,4.287,0,0,1,2.849,1.039,5.708,5.708,0,0,1,1.717,3.106.062.062,0,0,0,.06.048h.738a.062.062,0,0,0,.062-.062c0-.638-.03-1.254-.087-1.83s-.128-1.1-.206-1.547a9.709,9.709,0,0,0-.252-1.1,1.457,1.457,0,0,0-.21-.515.058.058,0,0,0-.054-.017,2.9,2.9,0,0,0-1.563.894,5.591,5.591,0,0,0-3.142-.982,6.261,6.261,0,0,0-2.642.571,6.66,6.66,0,0,0-2.171,1.6,7.818,7.818,0,0,0-1.479,2.452,8.7,8.7,0,0,0-.546,3.129,8.56,8.56,0,0,0,.482,2.9,6.865,6.865,0,0,0,1.38,2.335,6.436,6.436,0,0,0,2.16,1.546,6.906,6.906,0,0,0,2.816.559,7.252,7.252,0,0,0,2.028-.285,5.785,5.785,0,0,0,1.757-.845,5.081,5.081,0,0,0,1.319-1.408,5.386,5.386,0,0,0,.737-1.989.065.065,0,0,0-.041-.069Z" transform="translate(3.212 0.774)" fill="#fff"/>
    <path id="Trazado_52641" data-name="Trazado 52641" d="M176.457,38.183a6.928,6.928,0,0,0-2.323-1.557,7.665,7.665,0,0,0-2.946-.558,6.671,6.671,0,0,0-2.948.647,7.233,7.233,0,0,0-2.268,1.709,7.605,7.605,0,0,0-1.446,2.431,8.117,8.117,0,0,0-.5,2.813,7.95,7.95,0,0,0,.537,2.921,7.466,7.466,0,0,0,1.489,2.389,6.933,6.933,0,0,0,2.269,1.6,7.066,7.066,0,0,0,2.87.58,6.8,6.8,0,0,0,3.025-.668,7.412,7.412,0,0,0,2.31-1.753A8.081,8.081,0,0,0,178,46.275a7.937,7.937,0,0,0-.022-5.736,7.2,7.2,0,0,0-1.523-2.355m-.53,5.474a11.681,11.681,0,0,1-.271,2.577,6.547,6.547,0,0,1-.827,2.074,4.178,4.178,0,0,1-1.413,1.379,4.016,4.016,0,0,1-2.054.5,4.074,4.074,0,0,1-3.6-1.922,6.644,6.644,0,0,1-.86-2.128,11.893,11.893,0,0,1-.282-2.654A13.2,13.2,0,0,1,166.851,41a6.585,6.585,0,0,1,.752-2.083,4.143,4.143,0,0,1,1.371-1.432,3.8,3.8,0,0,1,2.063-.533,4.3,4.3,0,0,1,2.258.565,4.556,4.556,0,0,1,1.511,1.5,6.861,6.861,0,0,1,.85,2.138,11.442,11.442,0,0,1,.271,2.5" transform="translate(3.516 0.774)" fill="#fff"/>
    <path id="Trazado_52642" data-name="Trazado 52642" d="M36.47,32.989H10.613a.78.78,0,0,1,0-1.56H36.47a.78.78,0,0,1,0,1.56" transform="translate(0.211 0.674)" fill="#fff"/>
    <path id="Trazado_52643" data-name="Trazado 52643" d="M40.443,62.18H7.062A7.071,7.071,0,0,1,0,55.117V23.754a23.753,23.753,0,1,1,47.506,0V55.117a7.072,7.072,0,0,1-7.063,7.063M23.753,1.56A22.219,22.219,0,0,0,1.559,23.754V55.117a5.51,5.51,0,0,0,5.5,5.5H40.443a5.51,5.51,0,0,0,5.5-5.5V23.754A22.219,22.219,0,0,0,23.753,1.56" transform="translate(0 0)" fill="#fff"/>
    <path id="Trazado_52644" data-name="Trazado 52644" d="M32.17,28.633a5.953,5.953,0,0,1-.909-.062.717.717,0,0,1-.57-.9A6.27,6.27,0,0,1,33.07,24.4a6.254,6.254,0,0,1,3.971-.74.719.719,0,0,1,.571.9,6.258,6.258,0,0,1-2.38,3.265,5.809,5.809,0,0,1-3.062.8m3.685-3.591a3.726,3.726,0,0,0-3.409,2.15,3.719,3.719,0,0,0,3.409-2.15m-2.4-.033h0Z" transform="translate(0.657 0.506)" fill="#fff"/>
    <path id="Trazado_52645" data-name="Trazado 52645" d="M15.365,28.633a5.816,5.816,0,0,1-3.062-.8,6.261,6.261,0,0,1-2.379-3.265.717.717,0,0,1,.57-.9,6.253,6.253,0,0,1,3.972.738,6.255,6.255,0,0,1,2.378,3.265.717.717,0,0,1-.57.9,5.938,5.938,0,0,1-.909.062m-3.685-3.59a4.2,4.2,0,0,0,1.388,1.575,4.216,4.216,0,0,0,2.022.574A4.209,4.209,0,0,0,13.7,25.615a4.216,4.216,0,0,0-2.021-.573" transform="translate(0.212 0.506)" fill="#fff"/>
    <path id="Trazado_52646" data-name="Trazado 52646" d="M34.028,17.735a3.7,3.7,0,0,0-3.694-3.695.608.608,0,0,0-.1.02A6.028,6.028,0,0,0,24.373,9.39H22.579a6.028,6.028,0,0,0-5.862,4.671.656.656,0,0,0-.1-.02,3.693,3.693,0,0,0-1.344,7.133,8.215,8.215,0,0,0,16.405,0,3.7,3.7,0,0,0,2.349-3.438M22.579,10.826h1.795a4.568,4.568,0,0,1,4.3,6.145H26.022a2.994,2.994,0,1,0-2.749,1.415.644.644,0,0,0,.1.02h4.462a4.573,4.573,0,0,1-3.462,1.588H22.579a4.584,4.584,0,1,1,0-9.168m-.664,4.583a1.561,1.561,0,1,1,1.561,1.562,1.562,1.562,0,0,1-1.561-1.562m-7.557,2.326a2.26,2.26,0,0,1,2.2-2.253,6.005,6.005,0,0,0,2.125,4.513H16.618a2.262,2.262,0,0,1-2.259-2.259m2.368,3.695h8.92a8.175,8.175,0,0,0-3.522,5.937,6.8,6.8,0,0,1-5.4-5.937M23.551,27.5a6.756,6.756,0,0,1,6.675-6.064A6.8,6.8,0,0,1,23.551,27.5m6.783-7.5H28.265a6.008,6.008,0,0,0,2.124-4.513,2.257,2.257,0,0,1-.054,4.513" transform="translate(0.277 0.202)" fill="#fff"/>
    <path id="Trazado_52647" data-name="Trazado 52647" d="M18.477,43.026a11.343,11.343,0,0,0,1.146-.459,3.719,3.719,0,0,0,.971-.652A2.71,2.71,0,0,0,21.227,41a3.183,3.183,0,0,0,.223-1.251,2.932,2.932,0,0,0-.422-1.609,3.2,3.2,0,0,0-1.149-1.062,5.624,5.624,0,0,0-1.72-.594,11.78,11.78,0,0,0-2.146-.185H9.831a.062.062,0,0,0-.062.062v.673a.062.062,0,0,0,.062.062c1.347.02,2,.5,2,1.459V48.9c0,.776-.655,1.154-2,1.154a.061.061,0,0,0-.062.061v.653a.061.061,0,0,0,.062.061c1.4,0,2.679.015,3.806.044,1.153.029,2.338.043,3.525.043A9.138,9.138,0,0,0,19.2,50.7a4.47,4.47,0,0,0,1.649-.728,3.494,3.494,0,0,0,1.092-1.337,4.653,4.653,0,0,0,.4-2.014,3.029,3.029,0,0,0-1.087-2.437,5.6,5.6,0,0,0-2.777-1.153m.55-1.737a1.5,1.5,0,0,1-.614.835,3.408,3.408,0,0,1-1.36.478,14.978,14.978,0,0,1-2.38.151c-.385,0-.565-.174-.565-.545V38.015c0-.492.488-.742,1.451-.742H16.4c1.864,0,2.771.9,2.771,2.739a4.775,4.775,0,0,1-.149,1.276m-4.918,7.891V44.488c0-.514.185-.763.564-.763h.776a13.5,13.5,0,0,1,1.866.118,3.894,3.894,0,0,1,1.412.459,2.235,2.235,0,0,1,.88.952,4.328,4.328,0,0,1,.053,3.064,2.493,2.493,0,0,1-.7.954,2.768,2.768,0,0,1-1.065.531,5.324,5.324,0,0,1-1.342.161H15.6c-1,0-1.49-.257-1.49-.785" transform="translate(0.209 0.779)" fill="#fff"/>
    <path id="Trazado_52648" data-name="Trazado 52648" d="M37.1,46.563l-.652-.239a.065.065,0,0,0-.08.036,10.721,10.721,0,0,1-.9,1.8A4.429,4.429,0,0,1,34.469,49.3a3.377,3.377,0,0,1-1.194.586,5.8,5.8,0,0,1-1.472.172,4.254,4.254,0,0,1-2.205-.545,4.324,4.324,0,0,1-1.5-1.5,7.154,7.154,0,0,1-.851-2.261,14.138,14.138,0,0,1-.27-2.844,9.435,9.435,0,0,1,.248-2.158,5.925,5.925,0,0,1,.784-1.88,4.208,4.208,0,0,1,1.37-1.327,3.841,3.841,0,0,1,2.009-.5,4.289,4.289,0,0,1,2.85,1.039,5.7,5.7,0,0,1,1.716,3.106.063.063,0,0,0,.061.048h.738a.062.062,0,0,0,.062-.062c0-.634-.03-1.25-.087-1.831s-.128-1.1-.207-1.546a9.734,9.734,0,0,0-.251-1.1,1.42,1.42,0,0,0-.211-.514.058.058,0,0,0-.053-.018,2.9,2.9,0,0,0-1.563.894,5.594,5.594,0,0,0-3.141-.981,6.262,6.262,0,0,0-2.643.57,6.686,6.686,0,0,0-2.172,1.6,7.843,7.843,0,0,0-1.478,2.452,8.69,8.69,0,0,0-.546,3.129,8.576,8.576,0,0,0,.481,2.9,6.858,6.858,0,0,0,1.381,2.335,6.421,6.421,0,0,0,2.16,1.546,6.918,6.918,0,0,0,2.817.559,7.2,7.2,0,0,0,2.027-.285,5.735,5.735,0,0,0,1.756-.846,5.067,5.067,0,0,0,1.32-1.407,5.383,5.383,0,0,0,.736-1.99.062.062,0,0,0-.04-.068" transform="translate(0.524 0.774)" fill="#fff"/>
  </g>
</svg>
