<svg xmlns="http://www.w3.org/2000/svg" xmlns:xlink="http://www.w3.org/1999/xlink" width="229.372" height="69.037" viewBox="0 0 229.372 69.037">
  <defs>
    <clipPath id="clip-path">
      <rect id="Rectángulo_87358" data-name="Rectángulo 87358" width="229.372" height="69.037" fill="#222274"/>
    </clipPath>
  </defs>
  <g id="logo" transform="translate(0 0)">
    <g id="Grupo_30998" data-name="Grupo 30998" transform="translate(0 0)" clip-path="url(#clip-path)">
      <path id="Trazado_52622" data-name="Trazado 52622" d="M72.835,25.041a.073.073,0,0,0-.088.04,12.081,12.081,0,0,1-.993,2,4.918,4.918,0,0,1-1.118,1.26,3.724,3.724,0,0,1-1.326.652,6.52,6.52,0,0,1-1.635.191,4.729,4.729,0,0,1-2.448-.606,4.811,4.811,0,0,1-1.664-1.665,7.909,7.909,0,0,1-.944-2.51,15.613,15.613,0,0,1-.3-3.157,10.525,10.525,0,0,1,.276-2.4,6.583,6.583,0,0,1,.871-2.088,4.694,4.694,0,0,1,1.521-1.473,4.255,4.255,0,0,1,2.232-.558,4.755,4.755,0,0,1,3.162,1.153,6.323,6.323,0,0,1,1.908,3.449.069.069,0,0,0,.067.053h.82a.068.068,0,0,0,.049-.02.067.067,0,0,0,.019-.049c0-.709-.032-1.393-.1-2.033s-.142-1.219-.23-1.717a10.633,10.633,0,0,0-.279-1.227,1.593,1.593,0,0,0-.234-.57.07.07,0,0,0-.06-.019,3.21,3.21,0,0,0-1.735.992,6.213,6.213,0,0,0-3.488-1.09,6.952,6.952,0,0,0-2.934.634,7.423,7.423,0,0,0-2.411,1.776,8.687,8.687,0,0,0-1.641,2.723,9.657,9.657,0,0,0-.607,3.474,9.5,9.5,0,0,0,.535,3.219,7.63,7.63,0,0,0,1.532,2.593,7.152,7.152,0,0,0,2.4,1.717,7.671,7.671,0,0,0,3.127.62,8.045,8.045,0,0,0,2.251-.316,6.419,6.419,0,0,0,1.949-.939,5.626,5.626,0,0,0,1.465-1.562,6.02,6.02,0,0,0,.819-2.208.071.071,0,0,0-.045-.077Z" transform="translate(7.982 1.831)" fill="#222274"/>
      <path id="Trazado_52623" data-name="Trazado 52623" d="M87.066,29.956l.651-4.776a.068.068,0,0,0-.049-.075l-.651-.193a.071.071,0,0,0-.085.043c-.238.666-.476,1.257-.709,1.754a3.31,3.31,0,0,1-2.391,1.928,10.577,10.577,0,0,1-2.43.227h-.747c-1.252,0-1.861-.428-1.861-1.305V22.953c0-.489.34-.727,1.041-.727h.289a8.46,8.46,0,0,1,1.292.084,1.887,1.887,0,0,1,.861.348,1.675,1.675,0,0,1,.532.766,6,6,0,0,1,.285,1.394.07.07,0,0,0,.069.061h.893a.068.068,0,0,0,.069-.068V18.564a.069.069,0,0,0-.069-.069h-.893a.07.07,0,0,0-.069.061,4.3,4.3,0,0,1-.342,1.388,1.788,1.788,0,0,1-.626.744,2.083,2.083,0,0,1-.887.3,9.65,9.65,0,0,1-1.114.06H79.3c-.219,0-.51-.068-.51-.654V16.079c0-.683.577-1.016,1.763-1.016h.676c.619,0,1.2.02,1.732.06a3.291,3.291,0,0,1,1.381.4,2.881,2.881,0,0,1,1.024,1.049,5.848,5.848,0,0,1,.642,2,.081.081,0,0,0,.077.057l.747-.1a.068.068,0,0,0,.06-.071l-.193-4.51a.069.069,0,0,0-.068-.067H73.95a.069.069,0,0,0-.069.069v.724a.069.069,0,0,0,.069.069c1.559,0,2.319.641,2.319,1.96V27.654c0,1.009-.7,1.5-2.15,1.5a.069.069,0,0,0-.069.069v.724a.068.068,0,0,0,.069.068H87a.068.068,0,0,0,.068-.059" transform="translate(9.906 1.863)" fill="#222274"/>
      <path id="Trazado_52624" data-name="Trazado 52624" d="M102.617,27.462c0,1.139-.671,1.692-2.053,1.692a.069.069,0,0,0-.069.069v.722a.069.069,0,0,0,.069.069h6.8a.069.069,0,0,0,.069-.069v-.722a.069.069,0,0,0-.069-.069c-1.43,0-2.125-.61-2.125-1.866l-.265-11.158a2.4,2.4,0,0,1,.059-.541.819.819,0,0,1,.269-.434,1.489,1.489,0,0,1,.657-.3,5.61,5.61,0,0,1,1.238-.108.068.068,0,0,0,.068-.069v-.722a.068.068,0,0,0-.068-.069h-4.9a.069.069,0,0,0-.065.044L97.644,25.993,92.838,13.931a.068.068,0,0,0-.064-.043H87.806a.069.069,0,0,0-.069.069v.722a.069.069,0,0,0,.069.069,7.677,7.677,0,0,1,1.289.085,1.9,1.9,0,0,1,.71.243.641.641,0,0,1,.285.346,1.759,1.759,0,0,1,.059.466L89.956,26.9c-.081,1.516-.815,2.253-2.247,2.253a.069.069,0,0,0-.069.069v.722a.069.069,0,0,0,.069.069h5.812a.069.069,0,0,0,.069-.069v-.722a.069.069,0,0,0-.069-.069,2.528,2.528,0,0,1-1.852-.586,1.979,1.979,0,0,1-.491-1.466l.094-10.291L96.64,29.973a.071.071,0,0,0,.065.042h.675a.068.068,0,0,0,.065-.044l5.009-13.355Z" transform="translate(11.751 1.863)" fill="#222274"/>
      <path id="Trazado_52625" data-name="Trazado 52625" d="M107.528,14.749c1.561,0,2.318.641,2.318,1.961V27.652c0,1.009-.7,1.5-2.149,1.5a.068.068,0,0,0-.069.068v.724a.069.069,0,0,0,.069.069h12.879a.068.068,0,0,0,.068-.06l.651-4.774a.069.069,0,0,0-.049-.076l-.651-.193a.071.071,0,0,0-.084.043c-.239.667-.477,1.257-.71,1.754a3.3,3.3,0,0,1-2.39,1.928,10.525,10.525,0,0,1-2.431.227h-.747c-1.252,0-1.861-.428-1.861-1.305V22.953c0-.49.34-.728,1.041-.728h.289a8.46,8.46,0,0,1,1.292.084,1.887,1.887,0,0,1,.861.348,1.681,1.681,0,0,1,.532.766,6.133,6.133,0,0,1,.286,1.394.069.069,0,0,0,.069.062h.891a.069.069,0,0,0,.069-.069V18.563a.069.069,0,0,0-.069-.069h-.891a.068.068,0,0,0-.069.061,4.291,4.291,0,0,1-.344,1.388,1.779,1.779,0,0,1-.625.744,2.1,2.1,0,0,1-.888.3,9.635,9.635,0,0,1-1.114.06h-.82c-.219,0-.51-.068-.51-.654V16.079c0-.684.577-1.016,1.764-1.016h.676c.619,0,1.2.02,1.732.06a3.258,3.258,0,0,1,1.381.4,2.863,2.863,0,0,1,1.024,1.049,5.84,5.84,0,0,1,.643,2c0,.036.039.053.076.058l.748-.1a.069.069,0,0,0,.06-.071l-.193-4.51a.068.068,0,0,0-.069-.066H107.528a.069.069,0,0,0-.069.069v.722a.069.069,0,0,0,.069.069" transform="translate(14.409 1.863)" fill="#222274"/>
      <path id="Trazado_52626" data-name="Trazado 52626" d="M121.1,14.749c1.538,0,2.318.319,2.318.946V26.347c0,1.888-.641,2.807-1.956,2.807a.068.068,0,0,0-.069.068v.724a.069.069,0,0,0,.069.069h5.787a.069.069,0,0,0,.069-.069v-.724a.068.068,0,0,0-.069-.068c-1.624,0-2.414-.916-2.414-2.8v-9.52l10.536,13.421a.07.07,0,0,0,.054.026.047.047,0,0,0,.018,0l.627-.169a.069.069,0,0,0,.051-.067V17.337c0-1.741.7-2.588,2.15-2.588a.068.068,0,0,0,.068-.069v-.722a.068.068,0,0,0-.068-.069h-5.788a.069.069,0,0,0-.069.069v.722a.069.069,0,0,0,.069.069c1.608,0,2.392.847,2.392,2.589V25.79l-9.311-11.876a.07.07,0,0,0-.054-.026H121.1a.069.069,0,0,0-.069.069v.722a.069.069,0,0,0,.069.069" transform="translate(16.228 1.863)" fill="#222274"/>
      <path id="Trazado_52627" data-name="Trazado 52627" d="M150.8,13.739c-.362.048-.727.088-1.083.12s-.7.049-1.031.049H139.4c-.3,0-.62-.016-.946-.049s-.686-.073-1.046-.12a.069.069,0,0,0-.052.015.071.071,0,0,0-.026.045l-.651,5.137a.069.069,0,0,0,.051.076l.748.193a.07.07,0,0,0,.052-.008.074.074,0,0,0,.032-.044,6.487,6.487,0,0,1,1.454-3.067,3.371,3.371,0,0,1,2.53-1c.75,0,1.114.27,1.114.823V27.024c0,1.447-.821,2.15-2.512,2.15a.069.069,0,0,0-.069.069v.722a.069.069,0,0,0,.069.069h7.572a.069.069,0,0,0,.069-.069v-.722a.069.069,0,0,0-.069-.069c-1.7,0-2.536-.7-2.536-2.15V15.906c0-.5.372-.751,1.132-.751,2.345,0,3.579,1.242,3.771,3.795a.068.068,0,0,0,.026.049.062.062,0,0,0,.053.015l.652-.1a.068.068,0,0,0,.058-.068v-5.04a.071.071,0,0,0-.024-.052.1.1,0,0,0-.053-.017" transform="translate(18.326 1.842)" fill="#222274"/>
      <path id="Trazado_52628" data-name="Trazado 52628" d="M163.869,24.911a.073.073,0,0,0-.085.043c-.238.667-.476,1.257-.709,1.754a3.31,3.31,0,0,1-2.389,1.928,10.525,10.525,0,0,1-2.431.227h-.747c-1.252,0-1.861-.428-1.861-1.305V22.953c0-.49.341-.728,1.041-.728h.289a8.46,8.46,0,0,1,1.292.084,1.876,1.876,0,0,1,.861.349,1.671,1.671,0,0,1,.532.764,6.018,6.018,0,0,1,.285,1.394.07.07,0,0,0,.069.062h.894a.068.068,0,0,0,.068-.069V18.563a.068.068,0,0,0-.068-.069h-.894a.07.07,0,0,0-.069.061,4.275,4.275,0,0,1-.341,1.388,1.793,1.793,0,0,1-.627.744,2.083,2.083,0,0,1-.887.3,9.621,9.621,0,0,1-1.114.06h-.82c-.219,0-.51-.068-.51-.654V16.079c0-.684.577-1.016,1.765-1.016h.675c.619,0,1.2.02,1.732.06a3.258,3.258,0,0,1,1.381.4,2.871,2.871,0,0,1,1.024,1.049,5.792,5.792,0,0,1,.642,2,.084.084,0,0,0,.077.058l.747-.1a.068.068,0,0,0,.06-.071l-.193-4.51a.068.068,0,0,0-.068-.066H150.8a.069.069,0,0,0-.069.069v.722a.069.069,0,0,0,.069.069c1.559,0,2.318.641,2.318,1.961V27.652c0,1.01-.7,1.5-2.149,1.5a.068.068,0,0,0-.069.068v.724a.069.069,0,0,0,.069.069H163.85a.069.069,0,0,0,.068-.06l.651-4.774a.069.069,0,0,0-.049-.076Z" transform="translate(20.211 1.863)" fill="#222274"/>
      <path id="Trazado_52629" data-name="Trazado 52629" d="M179.674,27.6a.068.068,0,0,0-.056,0,.067.067,0,0,0-.034.044c-.169.685-.43,1.033-.777,1.033a.947.947,0,0,1-.767-.4,4.176,4.176,0,0,1-.581-1.008,11.09,11.09,0,0,1-.443-1.27c-.129-.451-.242-.837-.339-1.161a4.837,4.837,0,0,0-1.039-1.629,6.238,6.238,0,0,0-1.861-1.364,8.537,8.537,0,0,0,1.633-.515,5.466,5.466,0,0,0,1.354-.83,3.361,3.361,0,0,0,1.218-2.682,3.352,3.352,0,0,0-.394-1.6,4.1,4.1,0,0,0-1.066-1.276,5.109,5.109,0,0,0-1.6-.844,6.3,6.3,0,0,0-1.976-.305c-.561,0-1.044,0-1.436.012s-.759.019-1.113.035-.7.028-1.071.036-.822.012-1.35.012h-3.014a.069.069,0,0,0-.069.069v.747a.069.069,0,0,0,.069.069c1.495,0,2.223.482,2.223,1.474V27.667c0,1.008-.673,1.5-2.054,1.5a.069.069,0,0,0-.069.069v.722a.069.069,0,0,0,.069.069h6.8a.069.069,0,0,0,.069-.069v-.722a.069.069,0,0,0-.069-.069c-1.446,0-2.149-.49-2.149-1.5V22.446c.059-.136.294-.209.678-.209h.724a1.884,1.884,0,0,1,1.4.57,5.014,5.014,0,0,1,.963,1.45,13.22,13.22,0,0,1,.684,1.919c.2.705.39,1.368.58,1.969a2.994,2.994,0,0,0,1.064,1.64,3.879,3.879,0,0,0,2.21.507,1.669,1.669,0,0,0,.942-.278,2.857,2.857,0,0,0,.692-.642,2.651,2.651,0,0,0,.421-.793,2.41,2.41,0,0,0,.136-.72.07.07,0,0,0-.047-.066Zm-4.727-7.9a2.389,2.389,0,0,1-.832.939,2.955,2.955,0,0,1-1.177.423,9.92,9.92,0,0,1-1.389.1h-1.254c-.285,0-.452-.1-.509-.3v-4.6c0-.862.277-1.282.846-1.282h1.158a5.48,5.48,0,0,1,1.215.143,3.387,3.387,0,0,1,1.123.484,2.59,2.59,0,0,1,.822.929,3.124,3.124,0,0,1,.316,1.486,3.7,3.7,0,0,1-.318,1.681" transform="translate(22.11 1.851)" fill="#222274"/>
      <path id="Trazado_52630" data-name="Trazado 52630" d="M186.663,29.154c-1.512,0-2.245-.523-2.245-1.6V16.806c0-1.384.7-2.057,2.149-2.057a.068.068,0,0,0,.069-.068v-.724a.069.069,0,0,0-.069-.069h-6.994a.069.069,0,0,0-.069.069v.724a.068.068,0,0,0,.069.068c1.561,0,2.318.674,2.318,2.057v10.75c0,1.075-.726,1.6-2.221,1.6a.069.069,0,0,0-.069.069v.722a.069.069,0,0,0,.069.069h6.993a.069.069,0,0,0,.069-.069v-.722a.069.069,0,0,0-.069-.069" transform="translate(24.069 1.863)" fill="#222274"/>
      <path id="Trazado_52631" data-name="Trazado 52631" d="M203.549,18.617A8.007,8.007,0,0,0,201.858,16a7.71,7.71,0,0,0-2.579-1.728,8.515,8.515,0,0,0-3.271-.619,7.415,7.415,0,0,0-3.274.718,8.069,8.069,0,0,0-2.518,1.9,8.417,8.417,0,0,0-1.6,2.7,8.995,8.995,0,0,0-.559,3.123,8.849,8.849,0,0,0,.6,3.243,8.259,8.259,0,0,0,1.653,2.651,7.662,7.662,0,0,0,2.52,1.776,7.819,7.819,0,0,0,3.187.645,7.539,7.539,0,0,0,3.358-.742,8.234,8.234,0,0,0,2.566-1.946,8.994,8.994,0,0,0,1.641-2.734,8.812,8.812,0,0,0-.025-6.369m-2.279,3.462a13.014,13.014,0,0,1-.3,2.861,7.252,7.252,0,0,1-.919,2.3,4.653,4.653,0,0,1-1.568,1.532,4.462,4.462,0,0,1-2.281.556,4.519,4.519,0,0,1-3.993-2.134,7.389,7.389,0,0,1-.955-2.362,13.213,13.213,0,0,1-.313-2.946,14.684,14.684,0,0,1,.253-2.756,7.28,7.28,0,0,1,.835-2.314,4.6,4.6,0,0,1,1.522-1.589,4.209,4.209,0,0,1,2.29-.593,4.771,4.771,0,0,1,2.509.628,5.07,5.07,0,0,1,1.677,1.664,7.63,7.63,0,0,1,.944,2.374,12.735,12.735,0,0,1,.3,2.779" transform="translate(25.215 1.831)" fill="#222274"/>
      <path id="Trazado_52632" data-name="Trazado 52632" d="M69.288,43.769a12.591,12.591,0,0,0,1.275-.508,4.141,4.141,0,0,0,1.079-.725,3,3,0,0,0,.7-1.013,3.559,3.559,0,0,0,.246-1.389,3.249,3.249,0,0,0-.468-1.785,3.579,3.579,0,0,0-1.275-1.182,6.273,6.273,0,0,0-1.911-.659,13.142,13.142,0,0,0-2.383-.205H59.6a.069.069,0,0,0-.069.069v.747a.069.069,0,0,0,.069.069c1.559,0,2.318.53,2.318,1.619V50.287c0,.862-.727,1.282-2.222,1.282a.068.068,0,0,0-.069.068v.725a.069.069,0,0,0,.069.069c1.554,0,2.975.016,4.227.048,1.279.033,2.6.048,3.913.048a10.156,10.156,0,0,0,2.266-.242,4.958,4.958,0,0,0,1.829-.807,3.9,3.9,0,0,0,1.213-1.486,5.18,5.18,0,0,0,.44-2.236,3.363,3.363,0,0,0-1.207-2.706,6.239,6.239,0,0,0-3.086-1.28M64.44,50.6V45.392c0-.57.205-.847.626-.847h.862A14.922,14.922,0,0,1,68,44.676a4.318,4.318,0,0,1,1.566.509,2.465,2.465,0,0,1,.978,1.058,4.8,4.8,0,0,1,.059,3.4,2.774,2.774,0,0,1-.781,1.059,3.089,3.089,0,0,1-1.183.59,5.925,5.925,0,0,1-1.49.178H66.094c-1.114,0-1.655-.285-1.655-.871M69.9,41.84a1.667,1.667,0,0,1-.682.927,3.771,3.771,0,0,1-1.508.531,16.471,16.471,0,0,1-2.644.169c-.428,0-.627-.193-.627-.607V38.2c0-.547.543-.823,1.613-.823h.937c2.071,0,3.077.995,3.077,3.042A5.255,5.255,0,0,1,69.9,41.84" transform="translate(7.982 4.868)" fill="#222274"/>
      <path id="Trazado_52633" data-name="Trazado 52633" d="M89.085,50.015a.068.068,0,0,0-.056.006.064.064,0,0,0-.034.044c-.168.685-.43,1.032-.777,1.032a.94.94,0,0,1-.765-.4,4.2,4.2,0,0,1-.582-1.009,11.41,11.41,0,0,1-.443-1.269c-.129-.451-.242-.837-.339-1.161a4.825,4.825,0,0,0-1.039-1.629,6.27,6.27,0,0,0-1.86-1.364,8.682,8.682,0,0,0,1.632-.515,5.443,5.443,0,0,0,1.354-.831A3.362,3.362,0,0,0,87.4,40.242a3.363,3.363,0,0,0-.395-1.6,4.086,4.086,0,0,0-1.066-1.275,5.113,5.113,0,0,0-1.6-.845,6.32,6.32,0,0,0-1.976-.305c-.56,0-1.043,0-1.436.012-.425.009-.789.02-1.111.036s-.68.027-1.072.036c-.348.008-.777.012-1.348.012H74.375a.068.068,0,0,0-.069.068v.748a.068.068,0,0,0,.069.068c1.495,0,2.223.483,2.223,1.475V50.081c0,1.008-.673,1.5-2.054,1.5a.069.069,0,0,0-.069.069v.724a.069.069,0,0,0,.069.069h6.8a.069.069,0,0,0,.069-.069v-.724a.069.069,0,0,0-.069-.069c-1.446,0-2.149-.49-2.149-1.5v-5.22c.059-.136.294-.21.678-.21H80.6a1.885,1.885,0,0,1,1.4.572,5.009,5.009,0,0,1,.964,1.45,13.23,13.23,0,0,1,.683,1.919c.2.707.39,1.368.58,1.968a2.984,2.984,0,0,0,1.064,1.64,3.875,3.875,0,0,0,2.21.507,1.671,1.671,0,0,0,.942-.277,2.854,2.854,0,0,0,.692-.642A2.648,2.648,0,0,0,89.55,51a2.4,2.4,0,0,0,.136-.721.07.07,0,0,0-.046-.066Zm-4.727-7.9a2.375,2.375,0,0,1-.831.938,2.944,2.944,0,0,1-1.178.424,9.85,9.85,0,0,1-1.389.1H79.705c-.286,0-.452-.1-.509-.3v-4.6c0-.863.277-1.283.847-1.283H81.2a5.416,5.416,0,0,1,1.215.144,3.344,3.344,0,0,1,1.123.484,2.569,2.569,0,0,1,.822.929,3.11,3.11,0,0,1,.318,1.486,3.7,3.7,0,0,1-.319,1.681" transform="translate(9.963 4.856)" fill="#222274"/>
      <path id="Trazado_52634" data-name="Trazado 52634" d="M96.075,51.568c-1.512,0-2.247-.523-2.247-1.6V39.22c0-1.382.7-2.056,2.15-2.056a.069.069,0,0,0,.069-.069v-.724a.069.069,0,0,0-.069-.069H88.985a.069.069,0,0,0-.069.069v.724a.069.069,0,0,0,.069.069c1.559,0,2.318.674,2.318,2.056V49.971c0,1.074-.727,1.6-2.222,1.6a.069.069,0,0,0-.069.069v.724a.069.069,0,0,0,.069.069h6.994a.069.069,0,0,0,.069-.069v-.724a.069.069,0,0,0-.069-.069" transform="translate(11.922 4.868)" fill="#222274"/>
      <path id="Trazado_52635" data-name="Trazado 52635" d="M110.543,36.153c-.374.05-.738.09-1.082.121s-.693.048-1.031.048H99.144c-.307,0-.625-.016-.946-.048s-.666-.07-1.047-.121a.084.084,0,0,0-.051.015.073.073,0,0,0-.027.045l-.651,5.137a.071.071,0,0,0,.051.076l.747.193a.074.074,0,0,0,.054-.008.079.079,0,0,0,.032-.044A6.482,6.482,0,0,1,98.759,38.5a3.371,3.371,0,0,1,2.53-1c.75,0,1.114.269,1.114.822V49.438c0,1.447-.822,2.15-2.512,2.15a.068.068,0,0,0-.068.069v.724a.068.068,0,0,0,.068.069h7.572a.069.069,0,0,0,.069-.069v-.724a.069.069,0,0,0-.069-.069c-1.706,0-2.535-.7-2.535-2.15V38.32c0-.5.37-.751,1.131-.751,2.346,0,3.58,1.242,3.771,3.795a.072.072,0,0,0,.026.049.074.074,0,0,0,.053.015l.652-.1a.068.068,0,0,0,.059-.068V36.222a.071.071,0,0,0-.024-.052.1.1,0,0,0-.054-.017" transform="translate(12.929 4.848)" fill="#222274"/>
      <path id="Trazado_52636" data-name="Trazado 52636" d="M119.144,31.411a2.237,2.237,0,0,0-1.071.3,9.1,9.1,0,0,0-1.082.705c-.361.272-.73.565-1.1.87a7.72,7.72,0,0,1-1.148.789.07.07,0,0,0-.034.044.076.076,0,0,0,.01.054l.434.652a.069.069,0,0,0,.092.022,5.567,5.567,0,0,1,1.274-.489c.558-.153,1.11-.319,1.643-.5a8.673,8.673,0,0,0,1.423-.6,1,1,0,0,0,.638-.845,1.254,1.254,0,0,0-.2-.663.959.959,0,0,0-.878-.346" transform="translate(15.381 4.212)" fill="#222274"/>
      <path id="Trazado_52637" data-name="Trazado 52637" d="M124.64,51.359a1.054,1.054,0,0,1-.378-.124,2.258,2.258,0,0,1-.5-.594l-5.716-14.326a.068.068,0,0,0-.039-.039l-.722-.288a.07.07,0,0,0-.09.037L111.4,49.8a3.253,3.253,0,0,1-.813,1.226,1.905,1.905,0,0,1-1.152.465.069.069,0,0,0-.065.069V52.4a.069.069,0,0,0,.069.069h5.427a.068.068,0,0,0,.068-.069V51.56a.068.068,0,0,0-.068-.069c-1.363,0-2.054-.348-2.054-1.035a1.531,1.531,0,0,1,.093-.6l.821-2.5c.119-.387.46-.575,1.042-.575h3.594c.769,0,1.243.2,1.406.582l1.086,2.971a1.283,1.283,0,0,1,.127.423,1.335,1.335,0,0,0,.036.271c0,.069-.057.134-.168.193a2.09,2.09,0,0,1-.49.175,6.572,6.572,0,0,1-.669.119c-.25.033-.488.065-.712.1a.068.068,0,0,0-.059.068V52.4a.069.069,0,0,0,.069.069H125.6a.069.069,0,0,0,.069-.069V51.68a.068.068,0,0,0-.051-.067c-.418-.112-.744-.2-.978-.254m-5.548-5.949c0,.181-.356.22-.654.22H115.4c-.375,0-.823-.05-.823-.293a2.229,2.229,0,0,1,.26-.793l2.057-4.906,1.939,5a3.814,3.814,0,0,1,.261.771" transform="translate(14.665 4.825)" fill="#222274"/>
      <path id="Trazado_52638" data-name="Trazado 52638" d="M141.519,36.3h-5.788a.068.068,0,0,0-.068.069v.724a.068.068,0,0,0,.068.069c1.609,0,2.392.847,2.392,2.589V48.2l-9.31-11.876a.07.07,0,0,0-.056-.026h-4.409a.068.068,0,0,0-.068.069v.724a.068.068,0,0,0,.068.069c1.539,0,2.319.318,2.319.945V48.762c0,1.887-.641,2.806-1.956,2.806a.069.069,0,0,0-.069.069v.724a.069.069,0,0,0,.069.069H130.5a.069.069,0,0,0,.069-.069v-.724a.069.069,0,0,0-.069-.069c-1.625,0-2.414-.916-2.414-2.8V39.248l10.535,13.42a.071.071,0,0,0,.056.027l.018,0,.627-.169a.069.069,0,0,0,.05-.067V39.752c0-1.741.7-2.588,2.15-2.588a.069.069,0,0,0,.069-.069v-.724a.069.069,0,0,0-.069-.069" transform="translate(16.664 4.868)" fill="#222274"/>
      <path id="Trazado_52639" data-name="Trazado 52639" d="M148.28,51.568c-1.512,0-2.247-.523-2.247-1.6V39.22c0-1.382.7-2.056,2.15-2.056a.069.069,0,0,0,.069-.069v-.724a.069.069,0,0,0-.069-.069H141.19a.069.069,0,0,0-.069.069v.724a.069.069,0,0,0,.069.069c1.559,0,2.318.674,2.318,2.056V49.971c0,1.074-.727,1.6-2.222,1.6a.069.069,0,0,0-.069.069v.724a.069.069,0,0,0,.069.069h6.994a.069.069,0,0,0,.069-.069v-.724a.069.069,0,0,0-.069-.069" transform="translate(18.922 4.868)" fill="#222274"/>
      <path id="Trazado_52640" data-name="Trazado 52640" d="M163.126,47.455a.072.072,0,0,0-.088.04,12.083,12.083,0,0,1-.993,2,4.924,4.924,0,0,1-1.118,1.261,3.712,3.712,0,0,1-1.326.651,6.5,6.5,0,0,1-1.634.191,4.723,4.723,0,0,1-2.449-.606,4.8,4.8,0,0,1-1.665-1.665,7.88,7.88,0,0,1-.944-2.51,15.652,15.652,0,0,1-.3-3.157,10.455,10.455,0,0,1,.277-2.4,6.553,6.553,0,0,1,.871-2.088,4.649,4.649,0,0,1,1.521-1.473,4.251,4.251,0,0,1,2.231-.558,4.76,4.76,0,0,1,3.163,1.153,6.337,6.337,0,0,1,1.906,3.449.069.069,0,0,0,.067.053h.82a.069.069,0,0,0,.069-.069c0-.709-.033-1.393-.1-2.032s-.142-1.22-.229-1.718a10.775,10.775,0,0,0-.28-1.226,1.618,1.618,0,0,0-.234-.572.064.064,0,0,0-.06-.019,3.214,3.214,0,0,0-1.735.992,6.208,6.208,0,0,0-3.488-1.09,6.952,6.952,0,0,0-2.934.634,7.4,7.4,0,0,0-2.41,1.776,8.681,8.681,0,0,0-1.642,2.723,9.656,9.656,0,0,0-.607,3.474,9.5,9.5,0,0,0,.535,3.219,7.623,7.623,0,0,0,1.532,2.593,7.146,7.146,0,0,0,2.4,1.717,7.667,7.667,0,0,0,3.127.62,8.051,8.051,0,0,0,2.251-.316,6.423,6.423,0,0,0,1.951-.938,5.641,5.641,0,0,0,1.464-1.563A5.98,5.98,0,0,0,163.9,47.8a.072.072,0,0,0-.045-.077Z" transform="translate(20.088 4.837)" fill="#222274"/>
      <path id="Trazado_52641" data-name="Trazado 52641" d="M177.828,38.417a7.692,7.692,0,0,0-2.579-1.728,8.511,8.511,0,0,0-3.271-.619,7.406,7.406,0,0,0-3.273.718,8.03,8.03,0,0,0-2.518,1.9,8.444,8.444,0,0,0-1.606,2.7,9.013,9.013,0,0,0-.559,3.123,8.826,8.826,0,0,0,.6,3.243,8.289,8.289,0,0,0,1.654,2.653,7.7,7.7,0,0,0,2.519,1.776,7.845,7.845,0,0,0,3.187.644,7.548,7.548,0,0,0,3.359-.742,8.229,8.229,0,0,0,2.565-1.946,8.972,8.972,0,0,0,1.641-2.734,8.812,8.812,0,0,0-.025-6.369,8,8,0,0,0-1.691-2.615m-.589,6.078a12.97,12.97,0,0,1-.3,2.861,7.269,7.269,0,0,1-.919,2.3,4.638,4.638,0,0,1-1.568,1.531,4.459,4.459,0,0,1-2.281.556,4.523,4.523,0,0,1-3.993-2.134,7.377,7.377,0,0,1-.955-2.362,13.206,13.206,0,0,1-.313-2.946,14.655,14.655,0,0,1,.253-2.756A7.311,7.311,0,0,1,168,39.233a4.6,4.6,0,0,1,1.522-1.59,4.222,4.222,0,0,1,2.291-.592,4.775,4.775,0,0,1,2.507.627A5.059,5.059,0,0,1,176,39.342a7.619,7.619,0,0,1,.944,2.374,12.706,12.706,0,0,1,.3,2.779" transform="translate(21.993 4.837)" fill="#222274"/>
      <path id="Trazado_52642" data-name="Trazado 52642" d="M39.408,33.161H10.7a.866.866,0,0,1,0-1.732H39.408a.866.866,0,0,1,0,1.732" transform="translate(1.319 4.214)" fill="#222274"/>
      <path id="Trazado_52643" data-name="Trazado 52643" d="M44.9,69.037H7.841A7.851,7.851,0,0,1,0,61.2V26.373a26.373,26.373,0,1,1,52.745,0V61.2A7.852,7.852,0,0,1,44.9,69.037M26.372,1.732A24.67,24.67,0,0,0,1.731,26.373V61.2a6.117,6.117,0,0,0,6.11,6.11H44.9a6.117,6.117,0,0,0,6.11-6.11V26.373A24.669,24.669,0,0,0,26.372,1.732" transform="translate(0 0)" fill="#222274"/>
      <path id="Trazado_52644" data-name="Trazado 52644" d="M32.336,29.188a6.61,6.61,0,0,1-1.009-.069.8.8,0,0,1-.633-1,6.961,6.961,0,0,1,2.641-3.623,6.944,6.944,0,0,1,4.409-.821.8.8,0,0,1,.634,1A6.948,6.948,0,0,1,35.736,28.3a6.45,6.45,0,0,1-3.4.889M36.428,25.2a4.137,4.137,0,0,0-3.784,2.387A4.129,4.129,0,0,0,36.428,25.2m-2.667-.036h0Z" transform="translate(4.111 3.165)" fill="#d81a1a"/>
      <path id="Trazado_52645" data-name="Trazado 52645" d="M15.968,29.188a6.457,6.457,0,0,1-3.4-.889,6.951,6.951,0,0,1-2.641-3.625.8.8,0,0,1,.633-1,6.943,6.943,0,0,1,4.41.82,6.945,6.945,0,0,1,2.64,3.625.8.8,0,0,1-.633,1,6.593,6.593,0,0,1-1.009.069M11.876,25.2a4.667,4.667,0,0,0,1.541,1.749,4.681,4.681,0,0,0,2.245.637,4.673,4.673,0,0,0-1.542-1.75,4.681,4.681,0,0,0-2.244-.636" transform="translate(1.327 3.165)" fill="#d81a1a"/>
      <path id="Trazado_52646" data-name="Trazado 52646" d="M36.355,18.655a4.107,4.107,0,0,0-4.1-4.1.675.675,0,0,0-.11.023A6.693,6.693,0,0,0,25.636,9.39H23.643a6.693,6.693,0,0,0-6.509,5.186.728.728,0,0,0-.11-.023,4.1,4.1,0,0,0-1.492,7.919,9.121,9.121,0,0,0,18.215,0,4.107,4.107,0,0,0,2.608-3.817M23.643,10.985h1.993a5.072,5.072,0,0,1,4.779,6.823H27.466a3.325,3.325,0,1,0-3.052,1.571.715.715,0,0,0,.111.023h4.954a5.078,5.078,0,0,1-3.843,1.764H23.643a5.09,5.09,0,1,1,0-10.18m-.737,5.089a1.733,1.733,0,1,1,1.733,1.734,1.735,1.735,0,0,1-1.733-1.734m-8.39,2.582a2.509,2.509,0,0,1,2.447-2.5,6.667,6.667,0,0,0,2.359,5.01h-2.3a2.512,2.512,0,0,1-2.509-2.509m2.629,4.1h9.9a9.076,9.076,0,0,0-3.91,6.591,7.554,7.554,0,0,1-5.994-6.591M24.723,29.5a7.5,7.5,0,0,1,7.411-6.733A7.546,7.546,0,0,1,24.723,29.5m7.531-8.331h-2.3a6.67,6.67,0,0,0,2.358-5.01,2.506,2.506,0,0,1-.06,5.01" transform="translate(1.733 1.259)" fill="#d81a1a"/>
      <path id="Trazado_52647" data-name="Trazado 52647" d="M19.437,43.768a12.593,12.593,0,0,0,1.272-.509,4.129,4.129,0,0,0,1.079-.724,3.009,3.009,0,0,0,.7-1.013,3.534,3.534,0,0,0,.247-1.389,3.255,3.255,0,0,0-.468-1.786,3.558,3.558,0,0,0-1.276-1.179,6.244,6.244,0,0,0-1.91-.66A13.079,13.079,0,0,0,16.7,36.3H9.838a.069.069,0,0,0-.069.069v.747a.069.069,0,0,0,.069.069c1.5.023,2.223.551,2.223,1.619V50.286c0,.862-.727,1.282-2.222,1.282a.068.068,0,0,0-.069.068v.725a.068.068,0,0,0,.069.068c1.553,0,2.975.017,4.226.049,1.28.032,2.6.048,3.914.048a10.146,10.146,0,0,0,2.265-.242,4.963,4.963,0,0,0,1.83-.809,3.88,3.88,0,0,0,1.212-1.485,5.166,5.166,0,0,0,.441-2.236,3.363,3.363,0,0,0-1.207-2.706,6.22,6.22,0,0,0-3.084-1.28m.61-1.929a1.667,1.667,0,0,1-.682.927,3.784,3.784,0,0,1-1.509.531,16.63,16.63,0,0,1-2.642.168c-.428,0-.627-.193-.627-.606V38.2c0-.547.542-.823,1.612-.823h.938c2.07,0,3.077.995,3.077,3.042a5.3,5.3,0,0,1-.166,1.416M14.587,50.6V45.391c0-.57.205-.847.626-.847h.862a14.987,14.987,0,0,1,2.072.132,4.324,4.324,0,0,1,1.567.509,2.482,2.482,0,0,1,.978,1.057,4.806,4.806,0,0,1,.059,3.4,2.768,2.768,0,0,1-.783,1.059,3.073,3.073,0,0,1-1.183.59,5.911,5.911,0,0,1-1.49.179H16.241c-1.114,0-1.655-.286-1.655-.872" transform="translate(1.31 4.868)" fill="#222274"/>
      <path id="Trazado_52648" data-name="Trazado 52648" d="M38.5,47.721l-.724-.265a.072.072,0,0,0-.088.04,11.9,11.9,0,0,1-.995,2,4.917,4.917,0,0,1-1.117,1.261,3.749,3.749,0,0,1-1.326.651,6.441,6.441,0,0,1-1.634.191,4.723,4.723,0,0,1-2.448-.606A4.8,4.8,0,0,1,28.5,49.33a7.943,7.943,0,0,1-.945-2.511,15.7,15.7,0,0,1-.3-3.157,10.475,10.475,0,0,1,.276-2.4,6.578,6.578,0,0,1,.871-2.088A4.672,4.672,0,0,1,29.922,37.7a4.265,4.265,0,0,1,2.231-.558A4.763,4.763,0,0,1,35.317,38.3a6.328,6.328,0,0,1,1.905,3.449.07.07,0,0,0,.068.053h.82a.069.069,0,0,0,.069-.069c0-.7-.033-1.388-.1-2.033s-.142-1.217-.23-1.717a10.807,10.807,0,0,0-.279-1.226,1.577,1.577,0,0,0-.235-.57.064.064,0,0,0-.059-.02,3.218,3.218,0,0,0-1.735.992,6.211,6.211,0,0,0-3.487-1.089,6.952,6.952,0,0,0-2.935.633,7.423,7.423,0,0,0-2.411,1.776A8.708,8.708,0,0,0,25.071,41.2a9.648,9.648,0,0,0-.607,3.474A9.522,9.522,0,0,0,25,47.893a7.614,7.614,0,0,0,1.533,2.593,7.13,7.13,0,0,0,2.4,1.717,7.68,7.68,0,0,0,3.128.62,7.99,7.99,0,0,0,2.25-.316,6.367,6.367,0,0,0,1.949-.939,5.626,5.626,0,0,0,1.465-1.562A5.977,5.977,0,0,0,38.54,47.8a.068.068,0,0,0-.044-.076" transform="translate(3.28 4.837)" fill="#222274"/>
    </g>
  </g>
</svg>
