<?xml version="1.0" encoding="utf-8"?>
<!-- Generator: Adobe Illustrator 27.5.0, SVG Export Plug-In . SVG Version: 6.00 Build 0)  -->
<svg version="1.1" id="Capa_1" xmlns="http://www.w3.org/2000/svg" xmlns:xlink="http://www.w3.org/1999/xlink" x="0px" y="0px"
	 viewBox="0 0 55 55" style="enable-background:new 0 0 55 55;" xml:space="preserve">
<style type="text/css">
	.st0{fill:#DBDBD9;}
	.st1{fill:#FFFFFF;}
	.st2{fill:#0C0C44;}
	.st3{fill:none;stroke:#0C0C44;stroke-width:2;stroke-linecap:round;stroke-miterlimit:10;}
</style>
<ellipse id="Elipse_294_00000041268864549810627970000012963655225951657858_" class="st0" cx="27.5" cy="27.5" rx="24.3" ry="25"/>
<g>
	<g>
		<g>
			<g>
				<path class="st1" d="M18.4,36.6c-0.5,0-0.9-0.4-0.9-0.9V19.3c0-0.5,0.4-0.9,0.9-0.9h18.1c0.5,0,0.9,0.4,0.9,0.9v16.4
					c0,0.5-0.4,0.9-0.9,0.9H18.4z"/>
				<path class="st2" d="M36.5,19.4v16.1H18.5V19.4H36.5 M36.6,17.4H18.4c-1,0-1.9,0.8-1.9,1.9v16.4c0,1,0.8,1.9,1.9,1.9h18.1
					c1,0,1.9-0.8,1.9-1.9V19.3C38.5,18.3,37.6,17.4,36.6,17.4L36.6,17.4z"/>
			</g>
		</g>
	</g>
	<path class="st0" d="M17.7,20.4l9.2,6.6c0.4,0.3,1,0.3,1.4,0l9-6.5l-0.6-3h-20L17.7,20.4z"/>
	<path class="st3" d="M17.7,20.4l9.2,6.6c0.4,0.3,1,0.3,1.4,0l9-6.5"/>
	<g>
		<g>
			<g>
				<path class="st2" d="M36.5,19.4v16.1H18.5V19.4H36.5 M36.6,17.4H18.4c-1,0-1.9,0.8-1.9,1.9v16.4c0,1,0.8,1.9,1.9,1.9h18.1
					c1,0,1.9-0.8,1.9-1.9V19.3C38.5,18.3,37.6,17.4,36.6,17.4L36.6,17.4z"/>
			</g>
		</g>
	</g>
</g>
</svg>
