<?xml version="1.0" encoding="utf-8"?>
<!-- Generator: Adobe Illustrator 27.5.0, SVG Export Plug-In . SVG Version: 6.00 Build 0)  -->
<svg version="1.1" id="Capa_1" xmlns="http://www.w3.org/2000/svg" xmlns:xlink="http://www.w3.org/1999/xlink" x="0px" y="0px"
	 viewBox="0 0 55 55" style="enable-background:new 0 0 55 55;" xml:space="preserve">
<style type="text/css">
	.st0{fill:#2D8552;}
	.st1{fill:#FFFFFF;}
	.st2{fill:#0C0C44;}
</style>
<ellipse id="Elipse_294" class="st0" cx="27.5" cy="27.5" rx="24.3" ry="25"/>
<g>
	<g>
		<path class="st1" d="M27.5,38.6c-1.8,0-3.6-0.5-5.2-1.3L21.9,37L17,38.3c0,0,0,0,0,0c-0.1,0-0.1,0-0.1-0.1
			c-0.1-0.1-0.1-0.1-0.1-0.2l1.3-4.7L17.9,33c-1.9-3.4-1.9-7.5,0-11.1c1.2-2.2,3.3-4,5.8-4.8c1.3-0.4,2.6-0.6,3.8-0.6
			c2.9,0,5.7,1.2,7.8,3.3c2.1,2.1,3.2,4.9,3.2,7.8C38.6,33.6,33.6,38.6,27.5,38.6z"/>
		<path class="st2" d="M27.5,17.4c2.7,0,5.2,1.1,7.1,3c1.9,1.9,2.9,4.4,2.9,7.1c0,5.5-4.5,10.1-10.1,10.1c-1.7,0-3.3-0.4-4.8-1.2
			L22,36l-0.8,0.2L18.1,37l0.8-3l0.2-0.8l-0.4-0.7c-1.8-3.1-1.7-6.9,0-10.1c1.1-2,3-3.6,5.2-4.3C25.2,17.6,26.4,17.4,27.5,17.4
			 M27.5,15.4c-1.4,0-2.8,0.2-4.2,0.7c-2.7,0.9-5,2.8-6.3,5.3c-2.1,3.9-2.1,8.4,0,12.1l-1.2,4.3c-0.1,0.4,0,0.9,0.3,1.2
			c0.2,0.2,0.5,0.4,0.8,0.4c0.1,0,0.2,0,0.3,0l4.5-1.2c1.8,0.9,3.7,1.5,5.7,1.5c6.6,0,12.1-5.4,12.1-12.1c0-3.2-1.3-6.3-3.5-8.5
			C33.7,16.7,30.7,15.4,27.5,15.4L27.5,15.4z"/>
	</g>
	<g>
		<g>
			<path class="st2" d="M32,33.5C32,33.5,32,33.5,32,33.5c-1.4,0-2.7-0.3-3.8-0.7c-0.1,0-0.2-0.1-0.3-0.1c-4.3-1.7-6.1-5.8-6.4-9.6
				c0-0.4,0.1-0.9,0.4-1.2c0.3-0.3,0.7-0.5,1.2-0.5h1.4c0.4,0,0.8,0.2,1.1,0.5c0.3,0.3,0.5,0.7,0.5,1.1l0,1.6c0,0.5-0.2,0.9-0.5,1.2
				c0,0-0.1,0.1-0.1,0.1l-1,0.8c0.7,1.5,1.8,2.9,3.7,3.8l0.8-1c0,0,0.1-0.1,0.1-0.1c0.4-0.3,0.8-0.5,1.3-0.5H32
				c0.9,0,1.6,0.7,1.6,1.6l0,1.4c0,0.4-0.2,0.8-0.5,1.1C32.8,33.3,32.4,33.5,32,33.5z"/>
		</g>
	</g>
</g>
</svg>
